<svg xmlns="http://www.w3.org/2000/svg" xmlns:xlink="http://www.w3.org/1999/xlink" width="1920" height="1080" viewBox="0 0 1920 1080"><defs><style>.a{clip-path:url(#b);}.b{fill:#212121;}.b,.d,.e,.f{stroke:#fff;}.b,.d,.e{stroke-width:3px;}.c,.f{fill:#fff;}.d,.e,.h{fill:none;}.e{stroke-linecap:round;stroke-linejoin:round;}.g{stroke:none;}</style><clipPath id="b"><rect width="1920" height="1080"/></clipPath></defs><g id="a" class="a"><rect class="c" width="1920" height="1080"/><g class="b" transform="translate(415 131)"><ellipse class="g" cx="452.5" cy="409.5" rx="452.5" ry="409.5"/><ellipse class="h" cx="452.5" cy="409.5" rx="451" ry="408"/></g><path class="c" d="M30.756,14.386c-12.537,0-22.614,9.726-22.614,21.689S18.336,57.763,30.756,57.763,53.37,48.037,53.37,36.075,43.293,14.386,30.756,14.386Z" transform="matrix(0.974, 0.225, -0.225, 0.974, 721.313, 397.659)"/><path class="c" d="M558.194,201.51c-27.135-112.8-55.806-172.7-113.276-189.655a114.623,114.623,0,0,0-32.895-5.1c-35.327,0-60.03,18.736-123,18.736s-87.677-18.736-123-18.736a113.347,113.347,0,0,0-32.9,5.1C75.649,28.807,46.978,88.839,19.842,201.51-7.293,314.308-2.3,395.753,29.7,410.92a37.465,37.465,0,0,0,16,3.569c27.775,0,57.726-30.335,86.653-66.277,32.895-40.913,41.087-42.061,141.18-42.061h31.1c99.964,0,108.285,1.02,141.18,42.061,28.8,35.943,58.878,66.277,86.653,66.277a37.888,37.888,0,0,0,16-3.569C580.337,395.625,585.2,314.18,558.194,201.51ZM134.4,220.246a50.474,50.474,0,1,1,50.175-50.472A50.423,50.423,0,0,1,134.4,220.246ZM355.7,195.392a25.619,25.619,0,1,1,25.727-25.619A25.675,25.675,0,0,1,355.7,195.392Zm56.19,55.953a25.555,25.555,0,1,1,25.727-25.491A25.648,25.648,0,0,1,411.895,251.345Zm0-111.907a25.619,25.619,0,1,1,25.727-25.619A25.674,25.674,0,0,1,411.895,139.439Zm56.19,55.953a25.619,25.619,0,1,1,25.727-25.619A25.675,25.675,0,0,1,468.085,195.392Z" transform="matrix(0.914, 0.407, -0.407, 0.914, 690.156, 230.541)"/><path class="d" d="M33.138,26.711h0l-9.358-9.358,9.358-9.358h0a.966.966,0,0,0,0-1.363L28.717,2.21a.967.967,0,0,0-1.363,0h0L18,11.568,8.637,2.21h0a.966.966,0,0,0-1.363,0L2.852,6.631a.966.966,0,0,0,0,1.363h0l9.358,9.358L2.852,26.711h0a.966.966,0,0,0,0,1.363l4.421,4.421a.966.966,0,0,0,1.363,0h0L18,23.136l9.358,9.358h0a.966.966,0,0,0,1.363,0l4.421-4.421a.966.966,0,0,0,0-1.363Z" transform="translate(937.033 507.168) rotate(25)"/><path class="e" d="M13.636,5.516,2.675,22.7a2.3,2.3,0,0,0-.007,2.419,2.62,2.62,0,0,0,2.22,1.227H26.81a2.62,2.62,0,0,0,2.22-1.227,2.3,2.3,0,0,0-.007-2.419L18.062,5.516a2.678,2.678,0,0,0-4.426,0Z" transform="matrix(0.899, 0.438, -0.438, 0.899, 968.293, 582.593)"/><path class="e" d="M7.056,4.5H24.944A2.556,2.556,0,0,1,27.5,7.056V24.944A2.556,2.556,0,0,1,24.944,27.5H7.056A2.556,2.556,0,0,1,4.5,24.944V7.056A2.556,2.556,0,0,1,7.056,4.5Z" transform="matrix(0.891, 0.454, -0.454, 0.891, 1013.351, 480.343)"/><g class="d" transform="translate(1034 562)"><ellipse class="g" cx="15.5" cy="14.5" rx="15.5" ry="14.5"/><ellipse class="h" cx="15.5" cy="14.5" rx="14" ry="13"/></g><path class="d" d="M938.469,402.94h0c165.837-220.256,289.769-78.811,303.758-61.45.68.844,1.114,1.428,1.114,1.428" transform="translate(0 -27.775)"/><g class="f" transform="matrix(-0.799, 0.602, -0.602, -0.799, 1247.315, 318.073)"><rect class="g" width="3.2" height="5"/><rect class="h" x="0.5" y="0.5" width="2.2" height="4"/></g></g></svg>