<svg width="861" height="336" viewBox="0 0 861 336" fill="none" xmlns="http://www.w3.org/2000/svg">
<path fill-rule="evenodd" clip-rule="evenodd" d="M15.9777 109.035C0 128.075 0 155.767 0 211.152V336L754.056 246.215C798.121 240.968 820.153 238.344 835.48 226.021C841.413 221.252 846.506 215.529 850.55 209.087C861 192.445 861 170.311 861 126.043C861 71.1011 861 43.6295 846.982 25.2779C841.603 18.2374 834.906 12.3061 827.26 7.81348C807.331 -3.89694 779.987 -0.641015 725.297 5.87084L118.372 78.1374C63.2427 84.7017 35.6778 87.9838 18.6191 106.067C17.71 107.03 16.8292 108.02 15.9777 109.035ZM714.104 169.781C711.546 166.455 709.491 162.627 707.915 158.299L728.629 150.234C731.667 155.519 734.75 159.028 737.925 160.805L765.376 157.593C765.741 157.547 766.952 156.34 769.007 153.97C771.063 151.601 772.091 150.234 772.091 149.847L772.068 139.139C772.068 138.524 771.885 138.159 771.52 138.068L725.523 130.687C720.682 129.89 716.936 127.566 714.333 123.738C711.729 119.911 710.404 115.56 710.404 110.662L710.382 100.888C710.382 98.1314 710.61 95.7849 711.09 93.8484C711.569 91.9119 712.597 89.7248 714.173 87.2872C715.497 85.1229 717.37 82.6624 719.791 79.8602C722.212 77.0808 724.336 74.9393 726.14 73.4812C728.31 71.5903 730.319 70.2917 732.124 69.5855C733.951 68.8793 736.189 68.3553 738.838 68.0363L764.28 65.0519C769.236 64.4596 773.781 65.5303 777.914 68.2414C782.025 70.9524 785.497 74.2103 788.283 78.0149C790.955 81.5917 793.01 85.419 794.472 89.497L773.758 97.5619C770.72 92.2764 767.614 88.768 764.463 86.991L739.249 89.9527C738.884 89.9982 737.673 91.2057 735.618 93.575C733.563 95.9443 732.535 97.3113 732.535 97.6986L732.558 107.29C732.558 107.654 732.626 107.951 732.74 108.11C732.854 108.292 732.991 108.361 733.106 108.361L779.285 115.901C784.012 116.722 787.712 119.045 790.384 122.873C793.056 126.7 794.403 131.052 794.403 135.927L794.426 146.634C794.426 149.391 794.198 151.738 793.718 153.674C793.239 155.611 792.211 157.798 790.635 160.235C789.311 162.4 787.438 164.86 785.017 167.662C782.596 170.442 780.472 172.583 778.668 174.041C776.498 175.932 774.489 177.231 772.684 177.937C770.857 178.643 768.619 179.167 765.97 179.486L738.176 182.744C729.52 183.746 721.504 179.418 714.104 169.781ZM639.197 150.371L656.646 148.32L678.365 188.758L703.076 185.865L679.004 143.217C679.484 142.921 680.192 142.328 681.174 141.463C682.978 139.891 685.102 137.727 687.523 134.993C689.944 132.259 691.816 129.821 693.141 127.657C694.717 125.219 695.745 123.032 696.224 121.096C696.704 119.159 696.932 116.813 696.932 114.056L696.909 103.348C696.909 100.615 696.658 98.3135 696.179 96.491C695.676 94.6684 694.648 92.7319 693.073 90.6588C691.748 88.9501 689.898 86.9681 687.523 84.7354C685.148 82.5256 683.001 80.8397 681.06 79.6778C678.867 78.3109 676.88 77.4907 675.053 77.1946C673.249 76.9212 671.011 76.9212 668.339 77.2401L616.907 83.2774L617.09 196.003L639.266 193.406L639.197 150.371ZM668.042 124.991L639.152 128.386L639.106 102.642L667.996 99.2476C668.361 99.202 669.572 100.113 671.627 102.004C673.706 103.895 674.733 105.011 674.733 105.399L674.756 117.245C674.756 117.633 673.729 119 671.673 121.369C669.618 123.738 668.407 124.946 668.042 124.991ZM540.58 205.162C538.753 204.866 536.766 204.045 534.574 202.679C532.633 201.539 530.486 199.831 528.111 197.621C525.735 195.388 523.885 193.429 522.561 191.698C520.985 189.624 519.934 187.688 519.455 185.865C518.975 184.043 518.724 181.765 518.724 179.008L518.633 123.397C518.633 120.64 518.861 118.294 519.341 116.357C519.82 114.421 520.848 112.234 522.424 109.796C523.748 107.632 525.621 105.171 528.042 102.369C530.463 99.5897 532.587 97.4482 534.391 95.9902C536.561 94.0992 538.57 92.8007 540.375 92.0944C542.202 91.3882 544.44 90.8642 547.089 90.5452L574.358 87.3558C577.03 87.0368 579.268 87.0368 581.095 87.3102C582.922 87.6064 584.909 88.4265 587.102 89.7934C589.043 90.9553 591.19 92.6412 593.565 94.8511C595.94 97.0609 597.79 99.0657 599.115 100.774C600.69 102.848 601.718 104.784 602.221 106.607C602.7 108.429 602.951 110.707 602.951 113.464L603.043 169.075C603.043 171.832 602.814 174.178 602.335 176.115C601.855 178.051 600.827 180.238 599.252 182.676C597.927 184.84 596.054 187.301 593.633 190.103C591.212 192.882 589.089 195.024 587.284 196.482C585.115 198.373 583.105 199.671 581.301 200.378C579.474 201.084 577.236 201.608 574.586 201.927L547.318 205.116C544.645 205.458 542.407 205.458 540.58 205.162ZM543.983 180.352C546.039 182.243 547.249 183.154 547.614 183.132L574.152 180.01C574.518 179.965 575.728 178.757 577.784 176.388C579.839 174.019 580.867 172.652 580.867 172.264L580.775 115.514C580.775 115.127 579.748 114.011 577.669 112.12C575.614 110.229 574.381 109.318 574.038 109.363L547.5 112.484C547.135 112.53 545.924 113.737 543.869 116.107C541.813 118.476 540.786 119.843 540.786 120.23L540.877 176.98C540.9 177.322 541.928 178.461 543.983 180.352ZM509.179 117.907L509.133 95.9219L428.08 105.445L428.126 127.429L457.565 123.967L457.702 214.73L480.06 212.11L479.923 121.347L509.179 117.907ZM413.006 219.97L406.063 199.17L367.17 203.726L360.296 226.144L336.681 228.923L374.295 111.755L398.824 108.885L436.621 217.213L413.006 219.97ZM374.227 180.922L398.938 178.028L386.514 140.575L374.227 180.922ZM278.741 144.948L328.163 139.139V117.154L256.565 125.561L256.748 238.286L328.346 229.88L328.3 207.895L278.878 213.705L278.832 190.034L326.633 184.43L326.587 162.445L278.787 168.049L278.741 144.948ZM199.585 201.972L182.136 204.022L182.205 247.058L160.029 249.655L159.846 136.906L211.278 130.869C213.95 130.55 216.188 130.55 217.992 130.823C219.819 131.12 221.806 131.94 223.999 133.307C225.94 134.469 228.087 136.154 230.462 138.364C232.837 140.597 234.687 142.579 236.012 144.288C237.587 146.361 238.615 148.297 239.117 150.12C239.597 151.942 239.848 154.243 239.848 156.977L239.871 167.685C239.871 170.441 239.643 172.788 239.163 174.725C238.684 176.661 237.656 178.848 236.08 181.286C234.755 183.45 232.883 185.888 230.462 188.622C228.041 191.355 225.917 193.52 224.113 195.092C223.131 195.957 222.423 196.55 221.943 196.846L246.015 239.494L221.304 242.387L199.585 201.972ZM182.091 182.038L210.981 178.643C211.346 178.597 212.557 177.39 214.612 175.021C216.668 172.651 217.695 171.284 217.695 170.897L217.672 159.05C217.672 158.663 216.645 157.547 214.566 155.656C212.511 153.765 211.301 152.854 210.935 152.899L182.045 156.294L182.091 182.038ZM85.8954 258.54C84.0683 258.244 82.0814 257.424 79.8889 256.057C77.9477 254.918 75.8009 253.209 73.4257 250.999C71.0506 248.767 69.2007 246.807 67.8761 245.076C66.3002 243.003 65.2497 241.066 64.7701 239.244C64.2905 237.421 64.0392 235.143 64.0392 232.386L63.9479 176.775C63.9479 174.019 64.1763 171.672 64.6559 169.736C65.1355 167.799 66.1632 165.612 67.739 163.174C69.0637 161.01 70.9364 158.55 73.3572 155.747C75.7781 152.968 77.902 150.827 79.7062 149.369C81.8759 147.478 83.8856 146.179 85.6899 145.473C87.5169 144.767 89.7551 144.243 92.4043 143.924L116.933 141.053C121.888 140.461 126.433 141.531 130.567 144.243C134.701 146.954 138.149 150.211 140.935 154.016C143.608 157.593 145.663 161.42 147.125 165.498L126.41 173.563C123.373 168.278 120.267 164.769 117.115 162.992L92.7697 165.84C92.4043 165.886 91.1939 167.093 89.1384 169.462C87.083 171.832 86.0553 173.199 86.0553 173.586L86.1466 230.336C86.1466 230.723 87.1743 231.84 89.2526 233.73C91.308 235.621 92.5185 236.533 92.8839 236.51L117.229 233.662C120.381 231.156 123.464 226.919 126.479 220.927L147.216 224.139C145.64 228.832 143.608 233.138 141.05 237.079C133.673 248.47 125.68 254.667 117.092 255.67L92.5641 258.54C89.9378 258.814 87.6996 258.836 85.8954 258.54Z" fill="url(#paint0_linear)"/>
<defs>
<linearGradient id="paint0_linear" x1="430.5" y1="-1.47877e-05" x2="356.451" y2="318.8" gradientUnits="userSpaceOnUse">
<stop stop-color="#4AD5B8"/>
<stop offset="1" stop-color="#3AE171"/>
</linearGradient>
</defs>
</svg>
