<svg width="353" height="59" viewBox="0 0 353 59" fill="none" xmlns="http://www.w3.org/2000/svg">
<path fill-rule="evenodd" clip-rule="evenodd" d="M204.212 18.8538C201.398 22.1417 201.398 26.9237 201.398 36.4876V58.0468L334.173 42.5424C341.932 41.6363 345.811 41.1833 348.51 39.0554C349.555 38.2317 350.452 37.2434 351.164 36.1311C353.004 33.2573 353.004 29.4351 353.004 21.7908V21.7907C353.004 12.3032 353.004 7.55945 350.535 4.39045C349.588 3.17468 348.409 2.15044 347.063 1.37464C343.554 -0.647544 338.739 -0.0853015 329.109 1.03918L222.242 13.5184C212.534 14.6519 207.681 15.2187 204.677 18.3412C204.517 18.5077 204.362 18.6786 204.212 18.8538ZM327.138 29.3436C326.688 28.7693 326.326 28.1083 326.049 27.3609L329.696 25.9682C330.231 26.8809 330.774 27.4867 331.333 27.7936L336.166 27.2389C336.231 27.231 336.444 27.0225 336.806 26.6134C337.168 26.2042 337.349 25.9682 337.349 25.9013L337.345 24.0523C337.345 23.9461 337.312 23.8831 337.248 23.8674L329.149 22.5928C328.296 22.4551 327.637 22.0538 327.179 21.3929C326.72 20.732 326.487 19.9805 326.487 19.1347L326.483 17.447C326.483 16.971 326.523 16.5658 326.608 16.2314C326.692 15.897 326.873 15.5193 327.15 15.0984C327.384 14.7246 327.713 14.2998 328.14 13.8159C328.566 13.3359 328.94 12.9661 329.258 12.7143C329.64 12.3878 329.994 12.1636 330.311 12.0416C330.633 11.9196 331.027 11.8292 331.493 11.7741L335.973 11.2587C336.846 11.1564 337.646 11.3413 338.374 11.8095C339.098 12.2776 339.709 12.8402 340.2 13.4972C340.67 14.1149 341.032 14.7758 341.29 15.48L337.642 16.8726C337.107 15.9599 336.56 15.3541 336.005 15.0472L331.566 15.5587C331.502 15.5665 331.288 15.775 330.926 16.1842C330.565 16.5933 330.384 16.8294 330.384 16.8962L330.388 18.5525C330.388 18.6154 330.4 18.6666 330.42 18.6941C330.44 18.7256 330.464 18.7374 330.484 18.7374L338.615 20.0396C339.448 20.1812 340.099 20.5825 340.57 21.2434C341.04 21.9043 341.277 22.6557 341.277 23.4976L341.281 25.3466C341.281 25.8226 341.241 26.2278 341.157 26.5622C341.072 26.8966 340.891 27.2743 340.614 27.6953C340.381 28.069 340.051 28.4939 339.625 28.9778C339.198 29.4577 338.824 29.8275 338.507 30.0793C338.125 30.4058 337.771 30.6301 337.453 30.752C337.131 30.874 336.737 30.9645 336.271 31.0195L331.377 31.5821C329.853 31.7552 328.441 31.0077 327.138 29.3436ZM313.949 25.9918L317.021 25.6377L320.845 32.6207L325.196 32.1211L320.958 24.7565C321.042 24.7053 321.167 24.6031 321.34 24.4536C321.658 24.1821 322.032 23.8084 322.458 23.3363C322.884 22.8642 323.214 22.4433 323.447 22.0695C323.725 21.6486 323.906 21.2709 323.99 20.9365C324.074 20.6021 324.115 20.1969 324.115 19.7209L324.111 17.8719C324.111 17.3998 324.066 17.0024 323.982 16.6877C323.893 16.373 323.713 16.0386 323.435 15.6806C323.202 15.3855 322.876 15.0433 322.458 14.6577C322.04 14.2761 321.662 13.985 321.32 13.7844C320.934 13.5483 320.584 13.4067 320.262 13.3556C319.945 13.3083 319.55 13.3083 319.08 13.3634L310.024 14.406L310.056 33.8717L313.961 33.4232L313.949 25.9918ZM319.028 21.6092L313.941 22.1954L313.933 17.7499L319.02 17.1637C319.084 17.1559 319.297 17.3132 319.659 17.6398C320.025 17.9663 320.206 18.159 320.206 18.2259L320.21 20.2716C320.21 20.3385 320.029 20.5746 319.667 20.9837C319.305 21.3929 319.092 21.6014 319.028 21.6092ZM296.584 35.4533C296.262 35.4021 295.913 35.2605 295.527 35.0245C295.185 34.8278 294.807 34.5327 294.388 34.1511C293.97 33.7656 293.645 33.4272 293.411 33.1282C293.134 32.7702 292.949 32.4358 292.864 32.1211C292.78 31.8064 292.736 31.413 292.736 30.937L292.72 21.3339C292.72 20.8579 292.76 20.4527 292.844 20.1183C292.929 19.7839 293.11 19.4062 293.387 18.9853C293.62 18.6115 293.95 18.1867 294.376 17.7028C294.803 17.2228 295.177 16.853 295.494 16.6012C295.876 16.2747 296.23 16.0505 296.548 15.9285C296.87 15.8065 297.264 15.7161 297.73 15.661L302.532 15.1102C303.002 15.0551 303.396 15.0551 303.718 15.1023C304.04 15.1535 304.39 15.2951 304.776 15.5312C305.117 15.7318 305.495 16.0229 305.914 16.4045C306.332 16.7861 306.658 17.1323 306.891 17.4274C307.168 17.7854 307.349 18.1198 307.438 18.4345C307.522 18.7492 307.566 19.1426 307.566 19.6187L307.583 29.2217C307.583 29.6977 307.542 30.1029 307.458 30.4373C307.373 30.7717 307.192 31.1494 306.915 31.5703C306.682 31.9441 306.352 32.369 305.926 32.8529C305.499 33.3328 305.125 33.7026 304.808 33.9544C304.426 34.2809 304.072 34.5052 303.754 34.6271C303.433 34.7491 303.038 34.8396 302.572 34.8946L297.77 35.4454C297.3 35.5044 296.906 35.5044 296.584 35.4533ZM297.183 31.1691C297.545 31.4956 297.758 31.653 297.823 31.649L302.496 31.1101C302.56 31.1022 302.773 30.8937 303.135 30.4846C303.497 30.0754 303.678 29.8394 303.678 29.7725L303.662 19.9727C303.662 19.9058 303.481 19.7131 303.115 19.3865C302.753 19.06 302.536 18.9027 302.475 18.9105L297.803 19.4495C297.738 19.4574 297.525 19.6659 297.163 20.075C296.801 20.4842 296.62 20.7202 296.62 20.7871L296.636 30.5868C296.64 30.6458 296.821 30.8425 297.183 31.1691ZM291.055 20.3858L291.047 16.5894L276.775 18.2339L276.783 22.0302L281.967 21.4323L281.991 37.1056L285.928 36.6532L285.904 20.9798L291.055 20.3858ZM274.121 38.0104L272.898 34.4186L266.05 35.2054L264.839 39.0765L260.681 39.5565L267.305 19.3236L271.624 18.8279L278.279 37.5344L274.121 38.0104ZM267.293 31.2674L271.644 30.7678L269.456 24.3002L267.293 31.2674ZM250.479 25.0555L259.182 24.0523V20.2559L246.575 21.7076L246.607 41.1733L259.214 39.7217L259.206 35.9253L250.503 36.9285L250.495 32.841L258.912 31.8732L258.904 28.0768L250.487 29.0446L250.479 25.0555ZM236.541 34.9024L233.469 35.2565L233.481 42.6879L229.576 43.1364L229.544 23.6667L238.6 22.6242C239.071 22.5691 239.465 22.5691 239.783 22.6163C240.104 22.6675 240.454 22.8091 240.84 23.0452C241.182 23.2458 241.56 23.5369 241.978 23.9185C242.397 24.3041 242.722 24.6463 242.955 24.9414C243.233 25.2994 243.414 25.6338 243.502 25.9485C243.587 26.2632 243.631 26.6606 243.631 27.1326L243.635 28.9817C243.635 29.4577 243.595 29.8629 243.51 30.1973C243.426 30.5317 243.245 30.9093 242.968 31.3303C242.734 31.704 242.405 32.125 241.978 32.5971C241.552 33.0691 241.178 33.4429 240.86 33.7143C240.687 33.8638 240.563 33.9661 240.478 34.0173L244.717 41.3818L240.366 41.8815L236.541 34.9024ZM233.461 31.4601L238.548 30.8739C238.612 30.8661 238.826 30.6576 239.187 30.2484C239.549 29.8393 239.73 29.6032 239.73 29.5364L239.726 27.4906C239.726 27.4238 239.545 27.231 239.179 26.9045C238.817 26.5779 238.604 26.4206 238.54 26.4284L233.453 27.0146L233.461 31.4601ZM216.523 44.6708C216.201 44.6196 215.851 44.478 215.465 44.242C215.124 44.0453 214.746 43.7502 214.327 43.3686C213.909 42.9831 213.583 42.6447 213.35 42.3458C213.073 41.9878 212.888 41.6534 212.803 41.3386C212.719 41.0239 212.675 40.6305 212.675 40.1545L212.658 30.5514C212.658 30.0754 212.699 29.6702 212.783 29.3358C212.868 29.0014 213.048 28.6237 213.326 28.2028C213.559 27.8291 213.889 27.4042 214.315 26.9203C214.741 26.4403 215.115 26.0705 215.433 25.8187C215.815 25.4922 216.169 25.268 216.487 25.146C216.808 25.0241 217.203 24.9336 217.669 24.8785L221.988 24.3828C222.861 24.2805 223.661 24.4654 224.389 24.9336C225.117 25.4017 225.724 25.9643 226.214 26.6213C226.685 27.2389 227.047 27.8999 227.304 28.6041L223.657 29.9967C223.122 29.084 222.575 28.4782 222.02 28.1713L217.733 28.6631C217.669 28.6709 217.456 28.8794 217.094 29.2886C216.732 29.6977 216.551 29.9338 216.551 30.0007L216.567 39.8004C216.567 39.8673 216.748 40.0601 217.114 40.3866C217.476 40.7131 217.689 40.8705 217.753 40.8666L222.04 40.3748C222.595 39.942 223.138 39.2103 223.669 38.1756L227.32 38.7304C227.043 39.5408 226.685 40.2843 226.235 40.9649C224.936 42.9319 223.528 44.002 222.016 44.1751L217.697 44.6708C217.235 44.718 216.841 44.7219 216.523 44.6708Z" fill="white"/>
<path d="M1.5036 45.6204C0.79541 44.6707 0.351227 43.7609 0 42.8112L5.04402 41.5129C5.66441 42.5942 6.37201 43.5894 7.29714 44.1956H13.9739C14.0204 44.1956 14.3716 43.938 14.8577 43.4578C15.3432 42.9827 15.6072 42.6341 15.6072 42.5936V40.128C15.6072 39.9965 15.5607 39.911 15.4729 39.8705L4.28991 36.9298C1.81467 36.2832 0.62095 34.0347 0.62095 31.9126V29.6641C0.62095 28.4968 0.755241 27.7186 1.55124 26.6379C2.21295 25.7287 3.58228 24.3894 4.46608 23.7832C5.57199 23.005 6.36801 22.874 7.56689 22.874H13.7581C16.5019 22.874 18.5795 25.077 19.5976 26.5069C20.3058 27.5021 20.75 28.3663 21.1012 29.316L16.0572 30.6143C15.4368 29.5331 14.7291 28.5378 13.804 27.9317H7.65412C7.60763 27.9317 7.25638 28.1892 6.77029 28.6694C6.28477 29.1445 6.01562 29.4931 6.01562 29.5336V31.7366C6.01562 31.9087 6.14993 31.9941 6.14993 31.9941L17.3846 34.9804C19.8185 35.627 21.0536 37.8756 21.0536 39.9976V42.4632C21.0536 43.6305 20.9193 44.4087 20.1233 45.4893C19.4616 46.3986 18.087 47.7379 17.2032 48.344C16.0973 49.1222 15.3013 49.2532 14.1076 49.2532H7.34304C4.59922 49.2532 2.56302 47.0452 1.5036 45.6204Z" fill="white"/>
<path d="M27.1935 48.2379C26.2632 47.5913 24.8938 46.2475 24.274 45.3833C23.478 44.302 23.3438 43.5238 23.3438 42.3571V22.981H28.739V42.4836C28.739 42.5291 29.0024 42.8727 29.4936 43.3478C29.9843 43.8229 30.3361 44.0855 30.3774 44.0855H36.3925C36.439 44.0855 36.7902 43.828 37.2763 43.3478C37.7618 42.8676 38.0258 42.5241 38.0258 42.4836V22.9805H43.421V42.3515C43.421 43.5188 43.2867 44.2964 42.4907 45.3776C41.8296 46.2868 40.4545 47.6262 39.5713 48.2323C38.4654 49.0105 37.6694 49.1415 36.4757 49.1415H30.2897C29.0954 49.1421 28.2994 49.0161 27.1935 48.2379Z" fill="white"/>
<path d="M65.7355 29.8783V32.3439C65.7355 33.5112 65.6012 34.2894 64.8052 35.3701C64.1435 36.2793 62.769 37.6186 61.8852 38.2248C60.7793 39.003 59.9833 39.134 58.7902 39.134H51.6687V49.0368H46.2734V23.0928H58.7902C59.9839 23.0928 60.7799 23.2243 61.8852 24.002C62.8155 24.6486 64.1848 25.9924 64.8052 26.8567C65.6012 27.9328 65.7355 28.711 65.7355 29.8783ZM60.3351 29.7518C60.3351 29.7063 60.0717 29.3627 59.5856 28.8876C59.1001 28.4125 58.7431 28.1499 58.7018 28.1499H51.6687V34.0763H58.7018C58.7483 34.0763 59.0995 33.8188 59.5856 33.3386C60.0717 32.8584 60.3351 32.5148 60.3351 32.4744V29.7518Z" fill="white"/>
<path d="M73.2156 28.1505V33.4707H84.848V38.5284H73.2156V43.9752H85.2463V49.0328H67.8203V23.0928H85.2463V28.1505H73.2156Z" fill="white"/>
<path d="M97.513 39.1345H93.2546V49.0373H87.8594V23.0928H100.376C101.57 23.0928 102.366 23.2243 103.472 24.002C104.402 24.6486 105.771 25.9924 106.391 26.8567C107.187 27.9379 107.322 28.7161 107.322 29.8828V32.3484C107.322 33.5157 107.187 34.2939 106.391 35.3746C105.73 36.2838 104.355 37.6231 103.472 38.2293C103.286 38.3608 103.11 38.4716 102.939 38.5677L108.779 49.0362H102.764L97.513 39.1345ZM93.2546 34.0768H100.288C100.334 34.0768 100.685 33.8193 101.172 33.3391C101.658 32.859 101.926 32.5154 101.926 32.4749V29.7518C101.926 29.7063 101.663 29.3627 101.172 28.8876C100.681 28.4125 100.33 28.1499 100.288 28.1499H93.2546V34.0768Z" fill="white"/>
<path d="M113.272 48.3435C112.342 47.6969 110.973 46.3524 110.352 45.4888C109.557 44.4075 109.422 43.6293 109.422 42.4626V29.6641C109.422 28.4968 109.556 27.7186 110.352 26.6379C111.014 25.7287 112.388 24.3894 113.272 23.7832C114.378 23.005 115.174 22.874 116.368 22.874H122.336C125.08 22.874 127.158 25.077 128.176 26.5069C128.884 27.5021 129.328 28.3663 129.68 29.316L124.636 30.6143C124.016 29.5331 123.308 28.5378 122.383 27.9317H116.456C116.409 27.9317 116.058 28.1892 115.572 28.6694C115.086 29.1445 114.817 29.4931 114.817 29.5336V42.5942C114.817 42.6397 115.081 42.9833 115.572 43.4584C116.063 43.9335 116.414 44.1961 116.456 44.1961H122.383C123.313 43.59 124.021 42.5948 124.636 41.5135L129.68 42.8118C129.328 43.7615 128.884 44.6712 128.176 45.6209C127.116 47.0457 125.08 49.2538 122.336 49.2538H116.368C115.174 49.2527 114.379 49.1217 113.272 48.3435Z" fill="white"/>
<path d="M137.481 28.1505V33.4707H149.113V38.5284H137.481V43.9752H149.512V49.0328H132.086V23.0928H149.512V28.1505H137.481Z" fill="white"/>
<path d="M169.287 43.9341V49.0373H152.125V23.0928H157.52V43.9341H169.287Z" fill="white"/>
<path d="M188.725 43.9341V49.0373H171.562V23.0928H176.958V43.9341H188.725Z" fill="white"/>
</svg>
