<svg width="198" height="38" viewBox="0 0 198 38" fill="none" xmlns="http://www.w3.org/2000/svg">
<path d="M1.22621 27.606C0.648666 26.8117 0.28643 26.0507 0 25.2564L4.11346 24.1705C4.61939 25.0749 5.19645 25.9073 5.9509 26.4143H11.3959C11.4338 26.4143 11.7202 26.1989 12.1166 25.7972C12.5126 25.3998 12.7279 25.1083 12.7279 25.0744V23.0121C12.7279 22.9021 12.69 22.8306 12.6184 22.7967L3.49847 20.3371C1.47989 19.7962 0.506392 17.9155 0.506392 16.1406V14.2599C0.506392 13.2835 0.615908 12.6327 1.26506 11.7287C1.80469 10.9683 2.92139 9.84802 3.64214 9.34104C4.54402 8.69015 5.19318 8.58057 6.17088 8.58057H11.2199C13.4575 8.58057 15.1518 10.4232 15.982 11.6192C16.5596 12.4516 16.9218 13.1744 17.2083 13.9688L13.0948 15.0547C12.5889 14.1503 12.0118 13.3179 11.2573 12.8109H6.24202C6.20411 12.8109 5.91767 13.0263 5.52125 13.4279C5.1253 13.8253 4.90581 14.1169 4.90581 14.1508V15.9934C4.90581 16.1373 5.01534 16.2088 5.01534 16.2088L14.1773 18.7066C16.1622 19.2474 17.1694 21.1281 17.1694 22.903V24.9653C17.1694 25.9416 17.0599 26.5925 16.4108 27.4964C15.8711 28.2569 14.7502 29.3772 14.0294 29.8841C13.1276 30.535 12.4784 30.6446 11.5049 30.6446H5.98834C3.75072 30.6446 2.09018 28.7977 1.22621 27.606Z" fill="black"/>
<path d="M22.1761 29.7955C21.4174 29.2546 20.3007 28.1306 19.7953 27.4078C19.1461 26.5034 19.0366 25.8525 19.0366 24.8766V8.67015H23.4365V24.9824C23.4365 25.0205 23.6513 25.3079 24.0519 25.7053C24.4521 26.1027 24.739 26.3223 24.7727 26.3223H29.678C29.7159 26.3223 30.0023 26.1069 30.3988 25.7053C30.7947 25.3037 31.01 25.0163 31.01 24.9824V8.66968H35.4099V24.8719C35.4099 25.8483 35.3003 26.4987 34.6512 27.4031C34.112 28.1635 32.9907 29.2838 32.2704 29.7908C31.3685 30.4417 30.7194 30.5513 29.7459 30.5513H24.7011C23.7271 30.5517 23.078 30.4464 22.1761 29.7955Z" fill="black"/>
<path d="M53.6064 14.439V16.5012C53.6064 17.4776 53.4969 18.1285 52.8477 19.0324C52.3081 19.7929 51.1872 20.9131 50.4665 21.4201C49.5646 22.071 48.9154 22.1806 47.9424 22.1806H42.1347V30.4635H37.7349V8.76343H47.9424C48.9159 8.76343 49.565 8.87348 50.4665 9.5239C51.2251 10.0647 52.3418 11.1888 52.8477 11.9116C53.4969 12.8118 53.6064 13.4626 53.6064 14.439ZM49.2023 14.3332C49.2023 14.2951 48.9875 14.0077 48.5911 13.6103C48.1951 13.2129 47.904 12.9933 47.8703 12.9933H42.1347V17.9502H47.8703C47.9082 17.9502 48.1947 17.7348 48.5911 17.3332C48.9875 16.9316 49.2023 16.6442 49.2023 16.6104V14.3332Z" fill="black"/>
<path d="M59.7055 12.9938V17.4437H69.1919V21.6741H59.7055V26.2298H69.5167V30.4602H55.3057V8.76343H69.5167V12.9938H59.7055Z" fill="black"/>
<path d="M79.525 22.181H76.0522V30.4639H71.6523V8.76343H81.8599C82.8334 8.76343 83.4826 8.87348 84.3844 9.5239C85.1431 10.0647 86.2598 11.1888 86.7653 11.9116C87.4144 12.816 87.5239 13.4669 87.5239 14.4427V16.505C87.5239 17.4813 87.4144 18.1322 86.7653 19.0361C86.2261 19.7966 85.1047 20.9169 84.3844 21.4239C84.2328 21.5339 84.0896 21.6266 83.9501 21.707L88.7122 30.463H83.8069L79.525 22.181ZM76.0522 17.9507H81.7878C81.8258 17.9507 82.1122 17.7353 82.5086 17.3337C82.905 16.932 83.124 16.6447 83.124 16.6108V14.3332C83.124 14.2951 82.9092 14.0077 82.5086 13.6103C82.1084 13.2129 81.822 12.9933 81.7878 12.9933H76.0522V17.9507Z" fill="black"/>
<path d="M92.3743 29.8837C91.6157 29.3428 90.499 28.2183 89.993 27.496C89.3444 26.5916 89.2344 25.9407 89.2344 24.9648V14.2599C89.2344 13.2836 89.3439 12.6327 89.993 11.7287C90.5327 10.9683 91.6536 9.84802 92.3743 9.34104C93.2762 8.69015 93.9254 8.58057 94.8989 8.58057H99.7663C102.004 8.58057 103.698 10.4232 104.528 11.6192C105.106 12.4516 105.468 13.1744 105.755 13.9688L101.642 15.0547C101.136 14.1503 100.559 13.3179 99.8042 12.8109H94.9705C94.9325 12.8109 94.6461 13.0263 94.2497 13.4279C93.8538 13.8253 93.6343 14.1169 93.6343 14.1508V25.0749C93.6343 25.113 93.8491 25.4003 94.2497 25.7977C94.6503 26.1951 94.9368 26.4148 94.9705 26.4148H99.8042C100.563 25.9078 101.14 25.0753 101.642 24.171L105.755 25.2569C105.468 26.0512 105.106 26.8122 104.528 27.6065C103.664 28.7982 102.004 30.6451 99.7663 30.6451H94.8989C93.9254 30.6441 93.2767 30.5346 92.3743 29.8837Z" fill="black"/>
<path d="M112.115 12.9938V17.4437H121.602V21.6741H112.115V26.2298H121.926V30.4602H107.715V8.76343H121.926V12.9938H112.115Z" fill="black"/>
<path d="M138.059 26.1955V30.4639H124.062V8.76343H128.462V26.1955H138.059Z" fill="black"/>
<path d="M153.908 26.1955V30.4639H139.912V8.76343H144.312V26.1955H153.908Z" fill="black"/>
<path fill-rule="evenodd" clip-rule="evenodd" d="M166.092 5.70006C163.783 8.4531 163.783 11.9397 163.783 19.9479V38L182.545 35.3667C188.913 34.6081 192.097 34.2288 194.312 32.4469C195.169 31.7573 195.905 30.9298 196.49 29.9984C198 27.592 198 24.3916 198 17.9909V17.9908V17.9907C198 10.0466 198 6.59197 195.974 3.93847C195.197 2.92047 194.229 2.06285 193.124 1.41325C190.244 -0.279984 188.482 -0.327301 180.463 0.614912C179.444 0.734642 178.519 0.834549 177.673 0.925944C171.859 1.55378 169.765 1.77993 166.474 5.27089C166.342 5.41023 166.215 5.55334 166.092 5.70006ZM175.995 28.3422C176.391 28.5893 176.75 28.7375 177.08 28.791C177.405 28.8446 177.81 28.8404 178.284 28.791L182.715 28.2722C184.266 28.091 185.71 26.971 187.043 24.9122C187.505 24.1999 187.872 23.4216 188.156 22.5734L184.411 21.9928C183.866 23.0758 183.309 23.8416 182.74 24.2946L178.342 24.8093C178.276 24.8134 178.057 24.6487 177.686 24.3069C177.311 23.9652 177.125 23.7634 177.125 23.6934L177.108 13.4364C177.108 13.3664 177.294 13.1193 177.665 12.6911C178.037 12.2628 178.255 12.0446 178.321 12.0364L182.719 11.5217C183.288 11.8428 183.849 12.477 184.398 13.4323L188.14 11.9746C187.876 11.2376 187.505 10.5458 187.022 9.89933C186.519 9.21168 185.896 8.62286 185.149 8.13286C184.402 7.64287 183.581 7.44934 182.686 7.5564L178.255 8.07522C177.777 8.13286 177.372 8.22757 177.042 8.35522C176.717 8.48286 176.353 8.71757 175.962 9.05933C175.636 9.32286 175.252 9.70992 174.815 10.2123C174.377 10.7187 174.039 11.1634 173.8 11.5546C173.515 11.9952 173.33 12.3905 173.243 12.7405C173.156 13.0905 173.115 13.5146 173.115 14.0128L173.131 24.064C173.131 24.5622 173.177 24.974 173.264 25.3034C173.35 25.6328 173.54 25.9828 173.825 26.3575C174.064 26.6704 174.398 27.0246 174.827 27.4281C175.256 27.8275 175.644 28.1363 175.995 28.3422Z" fill="url(#paint0_linear)"/>
<defs>
<linearGradient id="paint0_linear" x1="180.891" y1="-1.67242e-06" x2="163.411" y2="26.445" gradientUnits="userSpaceOnUse">
<stop stop-color="#4AD5B8"/>
<stop offset="1" stop-color="#3AE171"/>
</linearGradient>
</defs>
</svg>
