<svg width="56" height="50" viewBox="0 0 56 50" fill="none" xmlns="http://www.w3.org/2000/svg">
<path d="M51.5763 5.29332C50.2142 3.93066 48.5971 2.84971 46.8172 2.11221C45.0373 1.37471 43.1296 0.995117 41.2029 0.995117C39.2763 0.995117 37.3685 1.37471 35.5886 2.11221C33.8088 2.84971 32.1916 3.93066 30.8296 5.29332L28.0029 8.11999L25.1763 5.29332C22.4251 2.54214 18.6937 0.996543 14.8029 0.996543C10.9122 0.996543 7.18077 2.54214 4.42959 5.29332C1.67841 8.0445 0.132813 11.7759 0.132812 15.6667C0.132812 19.5574 1.67841 23.2888 4.42959 26.04L7.25625 28.8666L28.0029 49.6133L48.7496 28.8666L51.5763 26.04C52.9389 24.678 54.0199 23.0608 54.7574 21.2809C55.4949 19.501 55.8745 17.5933 55.8745 15.6667C55.8745 13.74 55.4949 11.8323 54.7574 10.0524C54.0199 8.27248 52.9389 6.65533 51.5763 5.29332V5.29332Z" fill="white"/>
</svg>
