<svg width="611" height="262" viewBox="0 0 611 262" fill="none" xmlns="http://www.w3.org/2000/svg">
<path d="M17.6875 123.47L589.467 43.8926V167.68L17.6875 247.258V123.47Z" fill="white"/>
<path fill-rule="evenodd" clip-rule="evenodd" d="M11.3216 102.729C0 116.09 0 135.523 0 174.389V262L534.316 198.994C565.539 195.312 581.151 193.471 592.012 184.824C596.216 181.477 599.824 177.46 602.69 172.94C610.095 161.262 610.095 145.729 610.095 114.664V114.664C610.095 76.109 610.095 56.8315 600.162 43.9534C596.351 39.0128 591.605 34.8506 586.187 31.6979C572.066 23.4802 552.69 25.765 513.937 30.3347L83.8774 81.0471C44.8131 85.6536 25.2809 87.9568 13.1933 100.646C12.5491 101.322 11.925 102.017 11.3216 102.729ZM506.006 145.357C504.194 143.023 502.737 140.337 501.621 137.3L516.299 131.64C518.451 135.349 520.636 137.811 522.885 139.058L542.337 136.804C542.596 136.772 543.453 135.925 544.91 134.262C546.366 132.6 547.095 131.64 547.095 131.369L547.078 123.855C547.078 123.423 546.949 123.167 546.69 123.103L514.098 117.923C510.667 117.364 508.013 115.733 506.168 113.047C504.323 110.362 503.385 107.308 503.385 103.871L503.368 97.0123C503.368 95.0778 503.53 93.4312 503.87 92.0723C504.21 90.7133 504.938 89.1786 506.055 87.468C506.993 85.9492 508.32 84.2226 510.036 82.2562C511.751 80.3057 513.256 78.8029 514.535 77.7798C516.072 76.4528 517.496 75.5415 518.775 75.046C520.069 74.5504 521.655 74.1826 523.532 73.9588L541.56 71.8645C545.072 71.4488 548.292 72.2002 551.221 74.1027C554.134 76.0052 556.594 78.2913 558.568 80.9612C560.462 83.4712 561.918 86.157 562.954 89.0187L548.276 94.6782C546.124 90.9691 543.923 88.5071 541.69 87.2601L523.824 89.3385C523.565 89.3704 522.707 90.2178 521.251 91.8804C519.794 93.5431 519.066 94.5023 519.066 94.7741L519.082 101.505C519.082 101.76 519.131 101.968 519.211 102.08C519.292 102.208 519.389 102.256 519.47 102.256L552.192 107.548C555.542 108.123 558.164 109.754 560.057 112.44C561.951 115.126 562.905 118.179 562.905 121.601L562.922 129.114C562.922 131.049 562.76 132.696 562.42 134.054C562.08 135.413 561.352 136.948 560.235 138.659C559.297 140.178 557.969 141.904 556.254 143.871C554.539 145.821 553.034 147.324 551.755 148.347C550.218 149.674 548.794 150.585 547.515 151.081C546.221 151.576 544.635 151.944 542.758 152.168L523.063 154.454C516.93 155.157 511.25 152.12 506.006 145.357ZM452.928 131.736L465.292 130.297L480.682 158.675L498.191 156.644L481.135 126.716C481.475 126.508 481.976 126.093 482.672 125.485C483.951 124.382 485.456 122.863 487.171 120.945C488.886 119.026 490.213 117.316 491.152 115.797C492.269 114.086 492.997 112.552 493.337 111.193C493.676 109.834 493.838 108.187 493.838 106.253L493.822 98.7388C493.822 96.8203 493.644 95.2056 493.304 93.9267C492.948 92.6477 492.22 91.2888 491.103 89.834C490.165 88.6349 488.854 87.244 487.171 85.6773C485.488 84.1265 483.967 82.9435 482.591 82.1281C481.038 81.1689 479.63 80.5934 478.335 80.3856C477.057 80.1937 475.471 80.1937 473.577 80.4175L437.133 84.6541L437.263 163.758L452.976 161.936L452.928 131.736ZM473.367 113.927L452.896 116.309L452.863 98.2432L473.335 95.8611C473.593 95.8291 474.451 96.4686 475.908 97.7955C477.38 99.1225 478.108 99.9058 478.108 100.178L478.125 108.491C478.125 108.763 477.396 109.722 475.94 111.385C474.484 113.047 473.626 113.895 473.367 113.927ZM383.049 170.186C381.754 169.978 380.346 169.402 378.793 168.443C377.417 167.644 375.896 166.445 374.213 164.894C372.53 163.327 371.219 161.952 370.281 160.737C369.164 159.282 368.42 157.923 368.08 156.644C367.74 155.365 367.562 153.767 367.562 151.832L367.497 112.808C367.497 110.873 367.659 109.227 367.999 107.868C368.339 106.509 369.067 104.974 370.184 103.263C371.122 101.745 372.449 100.018 374.165 98.0516C375.88 96.1012 377.385 94.5984 378.663 93.5752C380.201 92.2483 381.625 91.337 382.903 90.8414C384.198 90.3458 385.784 89.9781 387.661 89.7543L406.984 87.5161C408.877 87.2923 410.463 87.2923 411.758 87.4841C413.052 87.6919 414.46 88.2675 416.014 89.2267C417.389 90.0421 418.91 91.2251 420.593 92.7759C422.276 94.3266 423.587 95.7335 424.526 96.9325C425.642 98.3873 426.371 99.7462 426.727 101.025C427.066 102.304 427.245 103.903 427.245 105.837L427.309 144.862C427.309 146.796 427.147 148.443 426.808 149.802C426.468 151.161 425.74 152.696 424.623 154.406C423.684 155.925 422.357 157.652 420.642 159.618C418.926 161.569 417.421 163.071 416.143 164.094C414.606 165.421 413.182 166.333 411.903 166.828C410.608 167.324 409.023 167.692 407.145 167.915L387.823 170.154C385.93 170.393 384.344 170.393 383.049 170.186ZM385.46 152.776C386.917 154.103 387.774 154.742 388.033 154.726L406.838 152.536C407.097 152.504 407.954 151.656 409.411 149.994C410.867 148.331 411.596 147.372 411.596 147.1L411.531 107.276C411.531 107.004 410.803 106.221 409.33 104.894C407.874 103.567 407 102.928 406.757 102.96L387.952 105.15C387.694 105.182 386.836 106.029 385.379 107.692C383.923 109.355 383.195 110.314 383.195 110.586L383.259 150.409C383.276 150.649 384.004 151.449 385.46 152.776ZM360.798 108.955L360.766 93.5273L303.333 100.21L303.365 115.637L324.225 113.207L324.322 176.9L340.165 175.062L340.068 111.369L360.798 108.955ZM292.651 180.577L287.732 165.981L260.172 169.178L255.301 184.91L238.568 186.86L265.221 104.638L282.602 102.624L309.385 178.643L292.651 180.577ZM265.173 153.175L282.683 151.145L273.879 124.862L265.173 153.175ZM197.513 127.931L232.533 123.855V108.427L181.799 114.326L181.929 193.431L232.662 187.531L232.63 172.104L197.61 176.18L197.577 159.57L231.448 155.637L231.416 140.209L197.545 144.142L197.513 127.931ZM141.423 167.947L129.06 169.386L129.108 199.586L113.395 201.408L113.265 122.288L149.709 118.051C151.602 117.827 153.188 117.827 154.467 118.019C155.761 118.227 157.169 118.803 158.723 119.762C160.098 120.577 161.62 121.76 163.303 123.311C164.986 124.878 166.296 126.269 167.235 127.468C168.352 128.922 169.08 130.281 169.436 131.56C169.776 132.839 169.954 134.454 169.954 136.372L169.97 143.886C169.97 145.821 169.808 147.468 169.468 148.826C169.128 150.185 168.4 151.72 167.284 153.431C166.345 154.95 165.018 156.66 163.303 158.579C161.587 160.497 160.082 162.016 158.804 163.119C158.108 163.726 157.606 164.142 157.266 164.35L174.323 194.278L156.813 196.308L141.423 167.947ZM129.027 153.958L149.499 151.576C149.758 151.544 150.615 150.697 152.072 149.034C153.528 147.372 154.256 146.412 154.256 146.141L154.24 137.827C154.24 137.556 153.512 136.772 152.039 135.445C150.583 134.118 149.725 133.479 149.466 133.511L128.995 135.893L129.027 153.958ZM60.8645 207.643C59.5699 207.436 58.162 206.86 56.6084 205.901C55.2329 205.101 53.7117 203.902 52.0286 202.352C50.3456 200.785 49.0348 199.41 48.0962 198.195C46.9796 196.74 46.2352 195.381 45.8953 194.102C45.5555 192.823 45.3775 191.225 45.3775 189.29L45.3128 150.266C45.3128 148.331 45.4746 146.684 45.8144 145.326C46.1543 143.967 46.8825 142.432 47.9991 140.721C48.9377 139.202 50.2647 137.476 51.9801 135.509C53.6955 133.559 55.2005 132.056 56.4789 131.033C58.0163 129.706 59.4404 128.795 60.7189 128.299C62.0135 127.804 63.5994 127.436 65.4766 127.212L82.857 125.198C86.3687 124.782 89.5891 125.533 92.5182 127.436C95.4473 129.338 97.8909 131.625 99.8653 134.294C101.759 136.804 103.215 139.49 104.251 142.352L89.573 148.011C87.4206 144.302 85.2198 141.84 82.9865 140.593L65.7356 142.592C65.4766 142.624 64.6189 143.471 63.1625 145.134C61.706 146.796 60.9778 147.756 60.9778 148.027L61.0425 187.851C61.0425 188.123 61.7707 188.907 63.2434 190.233C64.6999 191.56 65.5575 192.2 65.8165 192.184L83.0674 190.185C85.3007 188.427 87.4854 185.453 89.6215 181.249L104.316 183.503C103.199 186.796 101.759 189.818 99.9462 192.584C94.7191 200.577 89.0551 204.926 82.9703 205.629L65.5899 207.643C63.7289 207.835 62.143 207.851 60.8645 207.643Z" fill="url(#paint0_linear_1460_4961)"/>
<g clip-path="url(#clip0_1460_4961)">
<path fill-rule="evenodd" clip-rule="evenodd" d="M227.246 25.2872C223.086 30.2118 223.086 37.2981 223.086 49.7709V81.7243L357.575 64.8498C369.06 63.3921 374.802 62.6109 378.791 59.4078C380.344 58.1718 381.681 56.6894 382.746 55.0219C385.469 50.7241 385.469 45.0629 385.469 33.7341C385.469 19.6793 385.469 14.345 381.817 9.69262C380.411 7.90796 378.667 6.41471 376.681 5.29511C371.486 2.36258 364.359 3.29249 350.106 5.14604L253.939 17.0277C239.568 18.8959 232.388 19.8268 227.945 24.5132C227.725 24.7645 227.492 25.0225 227.246 25.2872Z" fill="white"/>
<path fill-rule="evenodd" clip-rule="evenodd" d="M254.025 56.9205C253.358 56.0801 252.94 55.249 252.609 54.3689L257.359 52.55C257.944 53.5275 258.61 54.412 259.481 54.8956L265.769 54.1514C265.813 54.1462 266.143 53.8578 266.601 53.3388C267.058 52.8248 267.307 52.4579 267.307 52.4187V50.0321C267.307 49.9047 267.263 49.8272 267.181 49.7978L256.649 48.1977C254.318 47.8477 253.194 45.8042 253.194 43.7502V41.5737C253.194 40.4438 253.321 39.6755 254.07 38.5407C254.693 37.5869 255.983 36.1378 256.815 35.4526C257.857 34.5761 258.606 34.3605 259.735 34.2269L265.566 33.5368C268.15 33.231 270.106 35.1319 271.065 36.4025C271.732 37.2869 272.15 38.0739 272.481 38.954L267.731 40.7729C267.147 39.7955 266.48 38.911 265.609 38.4274L259.817 39.1129C259.774 39.118 259.443 39.4065 258.985 39.9254C258.528 40.4395 258.274 40.8069 258.274 40.8461V42.9785C258.274 43.1451 258.401 43.2128 258.401 43.2128L268.981 44.8512C271.273 45.2058 272.436 47.2447 272.436 49.2988V51.6854C272.436 52.8153 272.31 53.5835 271.56 54.7183C270.937 55.6721 269.642 57.1218 268.81 57.807C267.769 58.6836 267.019 58.8991 265.895 59.0321L259.524 59.7861C256.941 60.0919 255.023 58.1816 254.025 56.9205ZM278.211 56.5916C277.335 56.0694 276.046 54.9212 275.462 54.1538C274.712 53.1959 274.586 52.4576 274.586 51.3282V32.5728L279.667 31.9715V50.8493C279.667 50.8934 279.915 51.1966 280.377 51.6018C280.84 52.007 281.171 52.2219 281.21 52.2173L286.874 51.5469C286.918 51.5417 287.249 51.2533 287.707 50.7343C288.164 50.2154 288.412 49.8534 288.412 49.8142V30.9358L293.493 30.3344V49.085C293.493 50.2149 293.367 50.9826 292.617 52.1179C291.994 53.0717 290.7 54.5214 289.868 55.2065C288.826 56.0831 288.077 56.2986 286.953 56.4317L281.127 57.1212C280.002 57.2548 279.253 57.2216 278.211 56.5916ZM314.515 36.9086V34.522C314.515 33.3921 314.389 32.6538 313.639 31.7008C313.055 30.9334 311.766 29.7852 310.89 29.263C309.849 28.6335 309.099 28.5949 307.975 28.7279L296.188 30.123V55.236L301.268 54.6347V45.0491L307.975 44.2553C309.098 44.1223 309.848 43.9068 310.89 43.0302C311.722 42.345 313.016 40.8954 313.639 39.9415C314.389 38.8067 314.515 38.0385 314.515 36.9086ZM308.724 34.2485C309.182 34.6542 309.43 34.9574 309.43 35.0015V37.6368C309.43 37.676 309.182 38.0379 308.724 38.5569C308.266 39.0759 307.935 39.3643 307.892 39.3695L301.268 40.1534V34.4168L307.892 33.6329C307.931 33.6283 308.267 33.8427 308.724 34.2485ZM321.55 32.017V37.1668L332.504 35.8703V40.766L321.55 42.0625V47.3348L332.879 45.9939V50.8896L316.469 52.8319V27.7227L332.879 25.7804V30.676L321.55 32.017ZM340.432 40.4148L344.443 39.9402L349.387 48.9395L355.052 48.2691L349.553 38.7868C349.714 38.6747 349.879 38.5479 350.054 38.3998C350.886 37.7146 352.181 36.2649 352.803 35.3111C353.553 34.1763 353.679 33.4081 353.679 32.2782V29.8916C353.679 28.7622 353.553 28.0239 352.803 27.066C352.22 26.2986 350.93 25.1504 350.054 24.6282C349.013 23.9987 348.263 23.9601 347.139 24.0932L335.352 25.4883V50.6018L340.432 50.0005V40.4148ZM347.056 34.7353L340.432 35.5192V29.7821L347.056 28.9981C347.095 28.9935 347.426 29.2085 347.888 29.6137C348.351 30.0189 348.599 30.322 348.599 30.3661V33.002C348.599 33.0412 348.346 33.4037 347.888 33.9227C347.43 34.4416 347.099 34.7301 347.056 34.7353Z" fill="url(#paint1_linear_1460_4961)"/>
</g>
<defs>
<linearGradient id="paint0_linear_1460_4961" x1="522.938" y1="-36.5913" x2="91.3669" y2="288.52" gradientUnits="userSpaceOnUse">
<stop stop-color="#55FFFF"/>
<stop offset="1" stop-color="#F878F8"/>
</linearGradient>
<linearGradient id="paint1_linear_1460_4961" x1="247.689" y1="64.7717" x2="364.191" y2="-0.68782" gradientUnits="userSpaceOnUse">
<stop stop-color="#F878F8"/>
<stop offset="1" stop-color="#55FFFF"/>
</linearGradient>
<clipPath id="clip0_1460_4961">
<rect width="167.304" height="78.7311" fill="white" transform="matrix(0.999914 -0.0130896 0 1 220.625 2.99414)"/>
</clipPath>
</defs>
</svg>
