<svg fill="none" height="413" viewBox="0 0 374 413" width="374" xmlns="http://www.w3.org/2000/svg"><path d="m6 399.108v6.9l6.8327-.958 191.3503-26.817.274-.032c32.198-3.831 56.801-6.757 76.156-11.022 19.527-4.303 34.297-10.08 46.6-19.962 9.266-7.443 17.222-16.375 23.541-26.429 8.391-13.352 12.398-28.66 14.371-48.5 1.955-19.662 1.955-44.359 1.955-76.674v-.34-.44c0-40.086 0-69.4-2.623-92.038-2.657-22.9211-8.06-39.6464-19.278-54.3189-8.402-10.9883-18.864-20.2442-30.805-27.2544-15.35-9.0117-28.1-13.80755-47.608-14.94973-19.017-1.1134-44.51 1.24705-85.297 6.03203-10.36 1.2155-19.768 2.2301-28.401 3.161v.0001l-.011.0011-.697.0753c-29.043 3.1317-49.791 5.369-67.3814 11.4089-18.1228 6.2229-32.6454 16.3602-49.8908 34.6242-1.42 1.5039-2.796 3.0487-4.1261 4.6323-12.735 15.1619-18.9257 32.2559-21.96683 55.5801-2.99495 22.969-2.99492 52.563-2.99487 92.935v.488z" fill="#fff9f0" stroke="#fff9f0" stroke-width="12"/></svg>